<svg width="296" height="52" viewBox="0 0 296 52" fill="none" xmlns="http://www.w3.org/2000/svg">
<path d="M1 14.4147L12.8145 1.00006L283.64 1.00006L295 14.7169V37.7257L283.64 51.0001L12.8145 51.0001L1 37.7257L1 14.4147Z" fill="black" stroke="#4E5868"/>
<path d="M91.5234 32.9805V19.3575H96.123C97.9785 19.3575 99.4466 19.6374 100.527 20.1973C101.608 20.7507 102.467 21.5678 103.105 22.6485C103.743 23.7292 104.062 24.9076 104.062 26.1837C104.062 27.0951 103.887 27.9675 103.535 28.8008C103.184 29.6342 102.682 30.3666 102.031 30.9981C101.367 31.6491 100.596 32.1407 99.7168 32.4727C99.2025 32.6745 98.7305 32.8113 98.3008 32.8829C97.8711 32.948 97.0508 32.9805 95.8398 32.9805H91.5234ZM95.918 21.0958H93.4766V31.2422H95.9766C96.9531 31.2422 97.7116 31.1771 98.252 31.0469C98.7923 30.9102 99.2415 30.7409 99.5996 30.5391C99.9642 30.3308 100.296 30.0769 100.596 29.7774C101.559 28.8008 102.041 27.5671 102.041 26.0762C102.041 24.6114 101.546 23.4167 100.557 22.4922C100.192 22.1472 99.7721 21.864 99.2969 21.6426C98.8281 21.4213 98.3822 21.2748 97.959 21.2032C97.5358 21.1316 96.8555 21.0958 95.918 21.0958ZM110.117 23.9962C111.484 23.9962 112.62 24.4389 113.525 25.3243C114.43 26.2032 114.882 27.31 114.882 28.6446C114.882 29.9402 114.423 31.0176 113.505 31.877C112.587 32.7299 111.432 33.1563 110.039 33.1563C108.691 33.1563 107.565 32.7234 106.66 31.8575C105.755 30.9851 105.302 29.8978 105.302 28.5958C105.302 27.2807 105.758 26.1869 106.669 25.3145C107.587 24.4356 108.736 23.9962 110.117 23.9962ZM110.019 25.5977C109.166 25.5977 108.466 25.8777 107.919 26.4376C107.373 26.9975 107.099 27.7103 107.099 28.5762C107.099 29.4356 107.379 30.1387 107.939 30.6856C108.499 31.226 109.218 31.4962 110.097 31.4962C110.97 31.4962 111.682 31.2227 112.236 30.6758C112.796 30.1225 113.076 29.4161 113.076 28.5567C113.076 27.7038 112.786 26.9975 112.206 26.4376C111.627 25.8777 110.898 25.5977 110.019 25.5977ZM127.44 24.0157H129.345L125.38 33.1563H124.823L122.157 26.8965L119.54 33.1563H118.964L114.96 24.0157H116.864L119.218 29.4649L121.503 24.0157H122.821L125.097 29.4649L127.44 24.0157ZM131.951 24.0157V25.1583C132.746 24.2794 133.647 23.8399 134.657 23.8399C135.216 23.8399 135.737 23.9864 136.219 24.2794C136.701 24.5658 137.065 24.963 137.313 25.4708C137.567 25.9721 137.694 26.7696 137.694 27.8633V33.0001H135.916V27.8829C135.916 26.9649 135.776 26.3106 135.496 25.92C135.216 25.5228 134.748 25.3243 134.09 25.3243C133.25 25.3243 132.537 25.7442 131.951 26.584V33.0001H130.135V24.0157H131.951ZM139.773 19.3575H141.551V33.0001H139.773V19.3575ZM147.986 23.9962C149.353 23.9962 150.489 24.4389 151.394 25.3243C152.299 26.2032 152.751 27.31 152.751 28.6446C152.751 29.9402 152.292 31.0176 151.374 31.877C150.456 32.7299 149.301 33.1563 147.907 33.1563C146.56 33.1563 145.433 32.7234 144.529 31.8575C143.624 30.9851 143.171 29.8978 143.171 28.5958C143.171 27.2807 143.627 26.1869 144.538 25.3145C145.456 24.4356 146.605 23.9962 147.986 23.9962ZM147.888 25.5977C147.035 25.5977 146.335 25.8777 145.788 26.4376C145.241 26.9975 144.968 27.7103 144.968 28.5762C144.968 29.4356 145.248 30.1387 145.808 30.6856C146.368 31.226 147.087 31.4962 147.966 31.4962C148.838 31.4962 149.551 31.2227 150.105 30.6758C150.665 30.1225 150.945 29.4161 150.945 28.5567C150.945 27.7038 150.655 26.9975 150.075 26.4376C149.496 25.8777 148.767 25.5977 147.888 25.5977ZM159.928 27.5997V31.418C159.928 31.724 160.033 31.877 160.241 31.877C160.456 31.877 160.791 31.7175 161.247 31.3985V32.4825C160.843 32.7429 160.518 32.9187 160.27 33.0098C160.029 33.1075 159.775 33.1563 159.508 33.1563C158.747 33.1563 158.298 32.8568 158.161 32.2579C157.406 32.8438 156.602 33.1368 155.749 33.1368C155.124 33.1368 154.603 32.9317 154.186 32.5215C153.77 32.1049 153.561 31.584 153.561 30.959C153.561 30.3926 153.763 29.8881 154.167 29.4454C154.577 28.9962 155.156 28.6413 155.905 28.3809L158.18 27.5997V27.1212C158.18 26.0404 157.64 25.5001 156.559 25.5001C155.589 25.5001 154.645 26.0014 153.727 27.004V25.0606C154.417 24.2468 155.41 23.8399 156.706 23.8399C157.676 23.8399 158.454 24.0938 159.04 24.6016C159.235 24.7644 159.411 24.9825 159.567 25.2559C159.723 25.5228 159.821 25.793 159.86 26.0665C159.906 26.3334 159.928 26.8445 159.928 27.5997ZM158.18 31.2227V28.5567L156.989 29.0157C156.383 29.2566 155.954 29.5007 155.7 29.7481C155.452 29.989 155.329 30.2917 155.329 30.6563C155.329 31.0274 155.446 31.3301 155.68 31.5645C155.921 31.7989 156.23 31.9161 156.608 31.9161C157.174 31.9161 157.699 31.685 158.18 31.2227ZM168.375 19.3575H170.162V33.0001H166.363C165.035 33.0001 163.974 32.5801 163.18 31.7403C162.392 30.9005 161.998 29.7741 161.998 28.3614C161.998 27.0398 162.412 25.9525 163.238 25.0997C164.072 24.2468 165.133 23.8204 166.422 23.8204C167.021 23.8204 167.672 23.9473 168.375 24.2012V19.3575ZM168.375 31.4766V25.7833C167.822 25.5033 167.262 25.3633 166.695 25.3633C165.81 25.3633 165.104 25.6531 164.576 26.2325C164.055 26.8119 163.795 27.5932 163.795 28.5762C163.795 29.5007 164.023 30.2136 164.479 30.7149C164.752 31.0144 165.042 31.2162 165.348 31.3204C165.654 31.4245 166.204 31.4766 166.998 31.4766H168.375ZM182.124 33.0001H177.505V19.3575H181.079C182.205 19.3575 183.084 19.5105 183.716 19.8165C184.347 20.1159 184.829 20.5326 185.161 21.0665C185.493 21.5938 185.659 22.2058 185.659 22.9024C185.659 24.2436 184.966 25.2038 183.579 25.7833C184.575 25.9721 185.366 26.3822 185.952 27.0137C186.545 27.6452 186.841 28.4005 186.841 29.2794C186.841 29.976 186.662 30.5977 186.304 31.1446C185.946 31.6915 185.418 32.1374 184.722 32.4825C184.032 32.8275 183.166 33.0001 182.124 33.0001ZM181.138 21.0958H179.458V25.1973H180.757C181.798 25.1973 182.537 24.9988 182.974 24.6016C183.416 24.2045 183.638 23.6902 183.638 23.0587C183.638 21.7501 182.804 21.0958 181.138 21.0958ZM181.284 26.9356H179.458V31.2618H181.382C182.45 31.2618 183.172 31.1804 183.55 31.0176C183.934 30.8484 184.24 30.588 184.468 30.2364C184.702 29.8848 184.819 29.5072 184.819 29.1036C184.819 28.6869 184.696 28.3061 184.448 27.961C184.207 27.6159 183.862 27.3588 183.413 27.1895C182.964 27.0202 182.254 26.9356 181.284 26.9356ZM189.995 24.0157V26.0762L190.092 25.92C190.952 24.5333 191.811 23.8399 192.67 23.8399C193.341 23.8399 194.041 24.1784 194.77 24.8555L193.832 26.418C193.214 25.8321 192.641 25.5391 192.114 25.5391C191.541 25.5391 191.043 25.8126 190.62 26.3594C190.203 26.9063 189.995 27.5541 189.995 28.3028V33.0001H188.207V24.0157H189.995ZM199.369 23.9962C200.736 23.9962 201.872 24.4389 202.777 25.3243C203.682 26.2032 204.135 27.31 204.135 28.6446C204.135 29.9402 203.676 31.0176 202.758 31.877C201.84 32.7299 200.684 33.1563 199.291 33.1563C197.943 33.1563 196.817 32.7234 195.912 31.8575C195.007 30.9851 194.555 29.8978 194.555 28.5958C194.555 27.2807 195.01 26.1869 195.922 25.3145C196.84 24.4356 197.989 23.9962 199.369 23.9962ZM199.271 25.5977C198.418 25.5977 197.719 25.8777 197.172 26.4376C196.625 26.9975 196.351 27.7103 196.351 28.5762C196.351 29.4356 196.631 30.1387 197.191 30.6856C197.751 31.226 198.471 31.4962 199.349 31.4962C200.222 31.4962 200.935 31.2227 201.488 30.6758C202.048 30.1225 202.328 29.4161 202.328 28.5567C202.328 27.7038 202.038 26.9975 201.459 26.4376C200.879 25.8777 200.15 25.5977 199.271 25.5977ZM212.406 30.9005V32.6583C211.514 32.9903 210.641 33.1563 209.788 33.1563C208.382 33.1563 207.259 32.7396 206.419 31.9063C205.586 31.073 205.169 29.9564 205.169 28.5567C205.169 27.1439 205.576 26.0046 206.39 25.1387C207.204 24.2728 208.275 23.8399 209.603 23.8399C210.065 23.8399 210.478 23.8855 210.843 23.9766C211.214 24.0613 211.67 24.224 212.21 24.4649V26.3594C211.312 25.7865 210.478 25.5001 209.71 25.5001C208.909 25.5001 208.252 25.7833 207.738 26.3497C207.223 26.9096 206.966 27.6257 206.966 28.4981C206.966 29.4161 207.243 30.1452 207.796 30.6856C208.356 31.226 209.108 31.4962 210.052 31.4962C210.736 31.4962 211.52 31.2976 212.406 30.9005ZM213.958 19.3575H215.735V25.1973C216.477 24.2924 217.398 23.8399 218.499 23.8399C219.098 23.8399 219.635 23.9896 220.11 24.2891C220.585 24.5886 220.937 25.002 221.165 25.5294C221.399 26.0567 221.516 26.8412 221.516 27.8829V33.0001H219.739V27.4434C219.739 26.7859 219.576 26.2585 219.251 25.8614C218.932 25.4577 218.509 25.2559 217.981 25.2559C217.591 25.2559 217.223 25.3568 216.878 25.5587C216.533 25.7605 216.152 26.0958 215.735 26.5645V33.0001H213.958V19.3575ZM229.279 33.0001V31.8575C228.902 32.2676 228.469 32.5866 227.981 32.8145C227.499 33.0424 227.017 33.1563 226.535 33.1563C225.969 33.1563 225.445 33.0163 224.963 32.7364C224.488 32.4499 224.126 32.0658 223.879 31.584C223.638 31.0958 223.518 30.2885 223.518 29.1622V24.0157H225.295V29.1426C225.295 30.0866 225.429 30.7475 225.695 31.1251C225.969 31.4962 226.444 31.6817 227.121 31.6817C227.968 31.6817 228.687 31.2683 229.279 30.4415V24.0157H231.057V33.0001H229.279ZM235.021 24.0157V26.0762L235.119 25.92C235.978 24.5333 236.837 23.8399 237.697 23.8399C238.367 23.8399 239.067 24.1784 239.796 24.8555L238.859 26.418C238.24 25.8321 237.668 25.5391 237.14 25.5391C236.567 25.5391 236.069 25.8126 235.646 26.3594C235.229 26.9063 235.021 27.5541 235.021 28.3028V33.0001H233.234V24.0157H235.021ZM247.853 28.6641H241.534C241.58 29.5235 241.866 30.2071 242.394 30.7149C242.927 31.2227 243.614 31.4766 244.454 31.4766C245.626 31.4766 246.707 31.112 247.696 30.3829V32.1212C247.149 32.4857 246.606 32.7462 246.065 32.9024C245.532 33.0587 244.903 33.1368 244.181 33.1368C243.191 33.1368 242.39 32.9317 241.778 32.5215C241.166 32.1114 240.675 31.5613 240.304 30.8712C239.939 30.1745 239.757 29.3705 239.757 28.459C239.757 27.0919 240.144 25.9818 240.919 25.129C241.694 24.2696 242.7 23.8399 243.937 23.8399C245.128 23.8399 246.078 24.2566 246.788 25.0899C247.498 25.9232 247.853 27.0398 247.853 28.4395V28.6641ZM241.573 27.5997H246.095C246.049 26.89 245.838 26.3432 245.46 25.959C245.082 25.5749 244.575 25.3829 243.937 25.3829C243.299 25.3829 242.774 25.5749 242.364 25.959C241.961 26.3432 241.697 26.89 241.573 27.5997Z" fill="white"/>
<path d="M74 34.0001V30.0001C74 29.7348 73.8946 29.4805 73.7071 29.293C73.5196 29.1054 73.2652 29.0001 73 29.0001C72.7348 29.0001 72.4804 29.1054 72.2929 29.293C72.1054 29.4805 72 29.7348 72 30.0001V34.0001C72 34.2653 71.8946 34.5196 71.7071 34.7072C71.5196 34.8947 71.2652 35.0001 71 35.0001H53C52.7348 35.0001 52.4804 34.8947 52.2929 34.7072C52.1054 34.5196 52 34.2653 52 34.0001V30.0001C52 29.7348 51.8946 29.4805 51.7071 29.293C51.5196 29.1054 51.2652 29.0001 51 29.0001C50.7348 29.0001 50.4804 29.1054 50.2929 29.293C50.1054 29.4805 50 29.7348 50 30.0001V34.0001C50 34.7957 50.3161 35.5588 50.8787 36.1214C51.4413 36.684 52.2044 37.0001 53 37.0001H71C71.7956 37.0001 72.5587 36.684 73.1213 36.1214C73.6839 35.5588 74 34.7957 74 34.0001ZM67.62 28.7801L62.62 32.7801C62.4435 32.9196 62.225 32.9955 62 32.9955C61.775 32.9955 61.5565 32.9196 61.38 32.7801L56.38 28.7801C56.1978 28.6081 56.0868 28.374 56.069 28.1241C56.0511 27.8742 56.1277 27.6267 56.2836 27.4306C56.4395 27.2345 56.6633 27.104 56.9108 27.065C57.1583 27.0261 57.4114 27.0814 57.62 27.2201L61 29.9201V16.0001C61 15.7348 61.1054 15.4805 61.2929 15.293C61.4804 15.1054 61.7348 15.0001 62 15.0001C62.2652 15.0001 62.5196 15.1054 62.7071 15.293C62.8946 15.4805 63 15.7348 63 16.0001V29.9201L66.38 27.2201C66.4807 27.125 66.6 27.0519 66.7305 27.0054C66.8609 26.9589 66.9996 26.9399 67.1377 26.9498C67.2758 26.9597 67.4104 26.9981 67.5329 27.0627C67.6553 27.1273 67.7631 27.2166 67.8492 27.325C67.9354 27.4334 67.9981 27.5585 68.0334 27.6924C68.0687 27.8263 68.0758 27.9661 68.0542 28.1029C68.0327 28.2397 67.983 28.3705 67.9082 28.4871C67.8335 28.6036 67.7353 28.7034 67.62 28.7801Z" fill="white"/>
</svg>
