<svg width="296" height="52" viewBox="0 0 296 52" fill="none" xmlns="http://www.w3.org/2000/svg">
<path d="M1 14.4146L12.8145 1L283.64 1L295 14.7168V37.7257L283.64 51L12.8145 51L1 37.7257L1 14.4146Z" fill="black"/>
<path d="M1 14.4146L12.8145 1L283.64 1L295 14.7168V37.7257L283.64 51L12.8145 51L1 37.7257L1 14.4146Z" fill="url(#paint0_linear_746_1107)"/>
<path d="M1 14.4146L12.8145 1L283.64 1L295 14.7168V37.7257L283.64 51L12.8145 51L1 37.7257L1 14.4146Z" stroke="#4E5868"/>
<path d="M91.5234 32.9805V19.3574H96.123C97.9785 19.3574 99.4466 19.6374 100.527 20.1973C101.608 20.7507 102.467 21.5677 103.105 22.6484C103.743 23.7292 104.062 24.9076 104.062 26.1836C104.062 27.0951 103.887 27.9674 103.535 28.8008C103.184 29.6341 102.682 30.3665 102.031 30.998C101.367 31.6491 100.596 32.1406 99.7168 32.4727C99.2025 32.6745 98.7305 32.8112 98.3008 32.8828C97.8711 32.9479 97.0508 32.9805 95.8398 32.9805H91.5234ZM95.918 21.0957H93.4766V31.2422H95.9766C96.9531 31.2422 97.7116 31.1771 98.252 31.0469C98.7923 30.9102 99.2415 30.7409 99.5996 30.5391C99.9642 30.3307 100.296 30.0768 100.596 29.7773C101.559 28.8008 102.041 27.5671 102.041 26.0762C102.041 24.6113 101.546 23.4167 100.557 22.4922C100.192 22.1471 99.7721 21.8639 99.2969 21.6426C98.8281 21.4212 98.3822 21.2747 97.959 21.2031C97.5358 21.1315 96.8555 21.0957 95.918 21.0957ZM110.117 23.9961C111.484 23.9961 112.62 24.4388 113.525 25.3242C114.43 26.2031 114.882 27.3099 114.882 28.6445C114.882 29.9401 114.423 31.0176 113.505 31.877C112.587 32.7298 111.432 33.1562 110.039 33.1562C108.691 33.1562 107.565 32.7233 106.66 31.8574C105.755 30.985 105.302 29.8978 105.302 28.5957C105.302 27.2806 105.758 26.1868 106.669 25.3145C107.587 24.4355 108.736 23.9961 110.117 23.9961ZM110.019 25.5977C109.166 25.5977 108.466 25.8776 107.919 26.4375C107.373 26.9974 107.099 27.7103 107.099 28.5762C107.099 29.4355 107.379 30.1387 107.939 30.6855C108.499 31.2259 109.218 31.4961 110.097 31.4961C110.97 31.4961 111.682 31.2227 112.236 30.6758C112.796 30.1224 113.076 29.416 113.076 28.5566C113.076 27.7038 112.786 26.9974 112.206 26.4375C111.627 25.8776 110.898 25.5977 110.019 25.5977ZM127.44 24.0156H129.345L125.38 33.1562H124.823L122.157 26.8965L119.54 33.1562H118.964L114.96 24.0156H116.864L119.218 29.4648L121.503 24.0156H122.821L125.097 29.4648L127.44 24.0156ZM131.951 24.0156V25.1582C132.746 24.2793 133.647 23.8398 134.657 23.8398C135.216 23.8398 135.737 23.9863 136.219 24.2793C136.701 24.5658 137.065 24.9629 137.313 25.4707C137.567 25.972 137.694 26.7695 137.694 27.8633V33H135.916V27.8828C135.916 26.9648 135.776 26.3105 135.496 25.9199C135.216 25.5228 134.748 25.3242 134.09 25.3242C133.25 25.3242 132.537 25.7441 131.951 26.584V33H130.135V24.0156H131.951ZM139.773 19.3574H141.551V33H139.773V19.3574ZM147.986 23.9961C149.353 23.9961 150.489 24.4388 151.394 25.3242C152.299 26.2031 152.751 27.3099 152.751 28.6445C152.751 29.9401 152.292 31.0176 151.374 31.877C150.456 32.7298 149.301 33.1562 147.907 33.1562C146.56 33.1562 145.433 32.7233 144.529 31.8574C143.624 30.985 143.171 29.8978 143.171 28.5957C143.171 27.2806 143.627 26.1868 144.538 25.3145C145.456 24.4355 146.605 23.9961 147.986 23.9961ZM147.888 25.5977C147.035 25.5977 146.335 25.8776 145.788 26.4375C145.241 26.9974 144.968 27.7103 144.968 28.5762C144.968 29.4355 145.248 30.1387 145.808 30.6855C146.368 31.2259 147.087 31.4961 147.966 31.4961C148.838 31.4961 149.551 31.2227 150.105 30.6758C150.665 30.1224 150.945 29.416 150.945 28.5566C150.945 27.7038 150.655 26.9974 150.075 26.4375C149.496 25.8776 148.767 25.5977 147.888 25.5977ZM159.928 27.5996V31.418C159.928 31.724 160.033 31.877 160.241 31.877C160.456 31.877 160.791 31.7174 161.247 31.3984V32.4824C160.843 32.7428 160.518 32.9186 160.27 33.0098C160.029 33.1074 159.775 33.1562 159.508 33.1562C158.747 33.1562 158.298 32.8568 158.161 32.2578C157.406 32.8438 156.602 33.1367 155.749 33.1367C155.124 33.1367 154.603 32.9316 154.186 32.5215C153.77 32.1048 153.561 31.584 153.561 30.959C153.561 30.3926 153.763 29.888 154.167 29.4453C154.577 28.9961 155.156 28.6413 155.905 28.3809L158.18 27.5996V27.1211C158.18 26.0404 157.64 25.5 156.559 25.5C155.589 25.5 154.645 26.0013 153.727 27.0039V25.0605C154.417 24.2467 155.41 23.8398 156.706 23.8398C157.676 23.8398 158.454 24.0938 159.04 24.6016C159.235 24.7643 159.411 24.9824 159.567 25.2559C159.723 25.5228 159.821 25.793 159.86 26.0664C159.906 26.3333 159.928 26.8444 159.928 27.5996ZM158.18 31.2227V28.5566L156.989 29.0156C156.383 29.2565 155.954 29.5007 155.7 29.748C155.452 29.9889 155.329 30.2917 155.329 30.6562C155.329 31.0273 155.446 31.3301 155.68 31.5645C155.921 31.7988 156.23 31.916 156.608 31.916C157.174 31.916 157.699 31.6849 158.18 31.2227ZM168.375 19.3574H170.162V33H166.363C165.035 33 163.974 32.5801 163.18 31.7402C162.392 30.9004 161.998 29.7741 161.998 28.3613C161.998 27.0397 162.412 25.9525 163.238 25.0996C164.072 24.2467 165.133 23.8203 166.422 23.8203C167.021 23.8203 167.672 23.9473 168.375 24.2012V19.3574ZM168.375 31.4766V25.7832C167.822 25.5033 167.262 25.3633 166.695 25.3633C165.81 25.3633 165.104 25.653 164.576 26.2324C164.055 26.8118 163.795 27.5931 163.795 28.5762C163.795 29.5007 164.023 30.2135 164.479 30.7148C164.752 31.0143 165.042 31.2161 165.348 31.3203C165.654 31.4245 166.204 31.4766 166.998 31.4766H168.375ZM182.124 33H177.505V19.3574H181.079C182.205 19.3574 183.084 19.5104 183.716 19.8164C184.347 20.1159 184.829 20.5326 185.161 21.0664C185.493 21.5938 185.659 22.2057 185.659 22.9023C185.659 24.2435 184.966 25.2038 183.579 25.7832C184.575 25.972 185.366 26.3822 185.952 27.0137C186.545 27.6452 186.841 28.4004 186.841 29.2793C186.841 29.9759 186.662 30.5977 186.304 31.1445C185.946 31.6914 185.418 32.1374 184.722 32.4824C184.032 32.8275 183.166 33 182.124 33ZM181.138 21.0957H179.458V25.1973H180.757C181.798 25.1973 182.537 24.9987 182.974 24.6016C183.416 24.2044 183.638 23.6901 183.638 23.0586C183.638 21.75 182.804 21.0957 181.138 21.0957ZM181.284 26.9355H179.458V31.2617H181.382C182.45 31.2617 183.172 31.1803 183.55 31.0176C183.934 30.8483 184.24 30.5879 184.468 30.2363C184.702 29.8848 184.819 29.5072 184.819 29.1035C184.819 28.6868 184.696 28.306 184.448 27.9609C184.207 27.6159 183.862 27.3587 183.413 27.1895C182.964 27.0202 182.254 26.9355 181.284 26.9355ZM189.995 24.0156V26.0762L190.092 25.9199C190.952 24.5332 191.811 23.8398 192.67 23.8398C193.341 23.8398 194.041 24.1784 194.77 24.8555L193.832 26.418C193.214 25.832 192.641 25.5391 192.114 25.5391C191.541 25.5391 191.043 25.8125 190.62 26.3594C190.203 26.9062 189.995 27.554 189.995 28.3027V33H188.207V24.0156H189.995ZM199.369 23.9961C200.736 23.9961 201.872 24.4388 202.777 25.3242C203.682 26.2031 204.135 27.3099 204.135 28.6445C204.135 29.9401 203.676 31.0176 202.758 31.877C201.84 32.7298 200.684 33.1562 199.291 33.1562C197.943 33.1562 196.817 32.7233 195.912 31.8574C195.007 30.985 194.555 29.8978 194.555 28.5957C194.555 27.2806 195.01 26.1868 195.922 25.3145C196.84 24.4355 197.989 23.9961 199.369 23.9961ZM199.271 25.5977C198.418 25.5977 197.719 25.8776 197.172 26.4375C196.625 26.9974 196.351 27.7103 196.351 28.5762C196.351 29.4355 196.631 30.1387 197.191 30.6855C197.751 31.2259 198.471 31.4961 199.349 31.4961C200.222 31.4961 200.935 31.2227 201.488 30.6758C202.048 30.1224 202.328 29.416 202.328 28.5566C202.328 27.7038 202.038 26.9974 201.459 26.4375C200.879 25.8776 200.15 25.5977 199.271 25.5977ZM212.406 30.9004V32.6582C211.514 32.9902 210.641 33.1562 209.788 33.1562C208.382 33.1562 207.259 32.7396 206.419 31.9062C205.586 31.0729 205.169 29.9564 205.169 28.5566C205.169 27.1439 205.576 26.0046 206.39 25.1387C207.204 24.2728 208.275 23.8398 209.603 23.8398C210.065 23.8398 210.478 23.8854 210.843 23.9766C211.214 24.0612 211.67 24.224 212.21 24.4648V26.3594C211.312 25.7865 210.478 25.5 209.71 25.5C208.909 25.5 208.252 25.7832 207.738 26.3496C207.223 26.9095 206.966 27.6257 206.966 28.498C206.966 29.416 207.243 30.1452 207.796 30.6855C208.356 31.2259 209.108 31.4961 210.052 31.4961C210.736 31.4961 211.52 31.2975 212.406 30.9004ZM213.958 19.3574H215.735V25.1973C216.477 24.2923 217.398 23.8398 218.499 23.8398C219.098 23.8398 219.635 23.9896 220.11 24.2891C220.585 24.5885 220.937 25.002 221.165 25.5293C221.399 26.0566 221.516 26.8411 221.516 27.8828V33H219.739V27.4434C219.739 26.7858 219.576 26.2585 219.251 25.8613C218.932 25.4577 218.509 25.2559 217.981 25.2559C217.591 25.2559 217.223 25.3568 216.878 25.5586C216.533 25.7604 216.152 26.0957 215.735 26.5645V33H213.958V19.3574ZM229.279 33V31.8574C228.902 32.2676 228.469 32.5866 227.981 32.8145C227.499 33.0423 227.017 33.1562 226.535 33.1562C225.969 33.1562 225.445 33.0163 224.963 32.7363C224.488 32.4499 224.126 32.0658 223.879 31.584C223.638 31.0957 223.518 30.2884 223.518 29.1621V24.0156H225.295V29.1426C225.295 30.0866 225.429 30.7474 225.695 31.125C225.969 31.4961 226.444 31.6816 227.121 31.6816C227.968 31.6816 228.687 31.2682 229.279 30.4414V24.0156H231.057V33H229.279ZM235.021 24.0156V26.0762L235.119 25.9199C235.978 24.5332 236.837 23.8398 237.697 23.8398C238.367 23.8398 239.067 24.1784 239.796 24.8555L238.859 26.418C238.24 25.832 237.668 25.5391 237.14 25.5391C236.567 25.5391 236.069 25.8125 235.646 26.3594C235.229 26.9062 235.021 27.554 235.021 28.3027V33H233.234V24.0156H235.021ZM247.853 28.6641H241.534C241.58 29.5234 241.866 30.207 242.394 30.7148C242.927 31.2227 243.614 31.4766 244.454 31.4766C245.626 31.4766 246.707 31.112 247.696 30.3828V32.1211C247.149 32.4857 246.606 32.7461 246.065 32.9023C245.532 33.0586 244.903 33.1367 244.181 33.1367C243.191 33.1367 242.39 32.9316 241.778 32.5215C241.166 32.1113 240.675 31.5612 240.304 30.8711C239.939 30.1745 239.757 29.3704 239.757 28.459C239.757 27.0918 240.144 25.9818 240.919 25.1289C241.694 24.2695 242.7 23.8398 243.937 23.8398C245.128 23.8398 246.078 24.2565 246.788 25.0898C247.498 25.9232 247.853 27.0397 247.853 28.4395V28.6641ZM241.573 27.5996H246.095C246.049 26.89 245.838 26.3431 245.46 25.959C245.082 25.5749 244.575 25.3828 243.937 25.3828C243.299 25.3828 242.774 25.5749 242.364 25.959C241.961 26.3431 241.697 26.89 241.573 27.5996Z" fill="white"/>
<path d="M74 34V30C74 29.7348 73.8946 29.4804 73.7071 29.2929C73.5196 29.1054 73.2652 29 73 29C72.7348 29 72.4804 29.1054 72.2929 29.2929C72.1054 29.4804 72 29.7348 72 30V34C72 34.2652 71.8946 34.5196 71.7071 34.7071C71.5196 34.8946 71.2652 35 71 35H53C52.7348 35 52.4804 34.8946 52.2929 34.7071C52.1054 34.5196 52 34.2652 52 34V30C52 29.7348 51.8946 29.4804 51.7071 29.2929C51.5196 29.1054 51.2652 29 51 29C50.7348 29 50.4804 29.1054 50.2929 29.2929C50.1054 29.4804 50 29.7348 50 30V34C50 34.7956 50.3161 35.5587 50.8787 36.1213C51.4413 36.6839 52.2044 37 53 37H71C71.7956 37 72.5587 36.6839 73.1213 36.1213C73.6839 35.5587 74 34.7956 74 34V34ZM67.62 28.78L62.62 32.78C62.4435 32.9195 62.225 32.9954 62 32.9954C61.775 32.9954 61.5565 32.9195 61.38 32.78L56.38 28.78C56.1978 28.608 56.0868 28.3739 56.069 28.1241C56.0511 27.8742 56.1277 27.6267 56.2836 27.4306C56.4395 27.2344 56.6633 27.104 56.9108 27.065C57.1583 27.026 57.4114 27.0813 57.62 27.22L61 29.92V16C61 15.7348 61.1054 15.4804 61.2929 15.2929C61.4804 15.1054 61.7348 15 62 15C62.2652 15 62.5196 15.1054 62.7071 15.2929C62.8946 15.4804 63 15.7348 63 16V29.92L66.38 27.22C66.4807 27.1249 66.6 27.0518 66.7305 27.0053C66.8609 26.9588 66.9996 26.9399 67.1377 26.9497C67.2758 26.9596 67.4104 26.9981 67.5329 27.0626C67.6553 27.1272 67.7631 27.2166 67.8492 27.325C67.9354 27.4334 67.9981 27.5585 68.0334 27.6924C68.0687 27.8263 68.0758 27.966 68.0542 28.1028C68.0327 28.2396 67.983 28.3704 67.9082 28.487C67.8335 28.6036 67.7353 28.7033 67.62 28.78V28.78Z" fill="white"/>
<defs>
<linearGradient id="paint0_linear_746_1107" x1="148" y1="1" x2="148" y2="51" gradientUnits="userSpaceOnUse">
<stop stop-color="#161B25"/>
<stop offset="1" stop-color="#2C303A"/>
</linearGradient>
</defs>
</svg>
