<svg width="69" height="69" viewBox="0 0 69 69" fill="none" xmlns="http://www.w3.org/2000/svg">
<path d="M34.5 4.3125C17.8295 4.3125 4.3125 17.8295 4.3125 34.5C4.3125 51.1705 17.8295 64.6875 34.5 64.6875C51.1705 64.6875 64.6875 51.1705 64.6875 34.5C64.6875 17.8295 51.1705 4.3125 34.5 4.3125ZM44.2099 34.9649L29.4935 45.6721C29.4128 45.73 29.3177 45.7647 29.2186 45.7721C29.1195 45.7795 29.0203 45.7595 28.9319 45.7143C28.8435 45.669 28.7692 45.6002 28.7173 45.5155C28.6654 45.4308 28.6379 45.3334 28.6377 45.2341V23.8333C28.6374 23.7338 28.6646 23.6361 28.7164 23.551C28.7682 23.466 28.8425 23.397 28.9312 23.3517C29.0198 23.3063 29.1192 23.2864 29.2185 23.2941C29.3177 23.3018 29.4129 23.3368 29.4935 23.3953L44.2099 34.0957C44.2794 34.1449 44.3361 34.21 44.3752 34.2856C44.4144 34.3613 44.4348 34.4452 44.4348 34.5303C44.4348 34.6155 44.4144 34.6994 44.3752 34.775C44.3361 34.8506 44.2794 34.9158 44.2099 34.9649Z" fill="white"/>
</svg>
