<svg width="119" height="17" viewBox="0 0 119 17" fill="none" xmlns="http://www.w3.org/2000/svg">
<path d="M38.1406 2.81259H34.5322V2.85395C34.6486 3.06076 34.7262 3.3503 34.7262 3.63984C34.7262 4.09483 34.4546 4.92208 34.377 5.29434L32.0878 12.326C31.7774 13.2359 31.7386 13.4841 31.1954 14.3527V14.3941H34.183V14.3527C34.0278 14.0632 33.9502 13.815 33.9502 13.5255C33.9502 13.0705 34.1442 12.4501 34.2606 12.1192L34.4158 11.6228H37.675C37.675 11.6228 37.869 12.2432 38.0242 12.6155C38.1406 12.9464 38.1794 13.2773 38.1794 13.4841C38.1794 13.7323 38.1406 13.9391 38.0242 14.3527V14.3941H42.3698V14.3527C41.9042 13.7323 41.6714 13.0291 41.2834 11.871L38.1406 2.81259ZM34.9978 9.72013L36.0066 6.49385L37.0542 9.72013H34.9978ZM29.333 11.8296C29.333 12.8637 29.4106 13.815 29.721 14.3527V14.3941H25.453V14.3527C25.8798 13.5668 25.8022 12.781 25.8022 11.871V9.96831V9.51332L25.2202 8.31381L23.1638 4.21891C22.8922 3.63984 22.6594 3.26758 22.2325 2.85395V2.81259H25.9574V2.85395L28.169 7.65201C28.169 7.65201 28.6734 6.57658 28.7898 6.3284C29.0226 5.83205 29.2942 5.25298 29.4106 5.0048C29.6046 4.63254 29.7986 4.09483 29.7986 3.6812C29.7986 3.26758 29.6822 3.06076 29.5658 2.89531V2.81259H32.5146V2.85395L29.527 9.14106L29.2942 9.59604L29.333 11.8296ZM50.7894 14.3941H43.1458V14.3527C43.4562 13.6082 43.495 12.9878 43.495 11.871V5.3357C43.495 3.97074 43.3786 3.43303 43.1458 2.89531V2.85395H47.2974V2.89531C47.0258 3.6812 46.987 4.13619 46.987 5.37707V12.0364C47.4526 12.1192 47.9958 12.2019 48.5778 12.2019C49.8194 12.2019 50.4791 12.0778 50.9447 11.871H51.0611L50.7894 14.3941ZM17.1885 2.52305C13.8129 2.52305 11.4849 4.75663 11.4849 7.90018C11.4849 12.4914 16.0633 13.1532 17.6541 11.6642L17.3825 11.0851C15.9857 11.3746 14.7441 10.2578 14.7441 7.73473C14.7441 5.70797 15.7529 4.42573 17.1497 4.42573C18.7793 4.42573 19.7881 6.16295 19.7881 8.68607C19.7881 11.5401 18.2361 13.6909 15.3649 13.6909C12.0669 13.6909 9.58371 10.9196 8.0317 8.14836C9.73891 7.44519 10.7477 6.08023 10.7477 4.21891C10.7477 1.81989 9.0405 0.124023 5.97529 0.124023H0.155273V0.165386C0.388074 0.703099 0.504475 1.6958 0.504475 3.06076V11.871C0.504475 12.9878 0.465675 13.6082 0.155273 14.3527V14.3941H4.46209V14.3527C4.19049 13.6496 4.11289 12.6982 4.11289 11.871C4.11289 10.506 4.11289 9.43059 4.11289 9.43059C4.15169 9.43059 4.57849 9.43059 4.65609 9.43059C7.6437 14.1046 11.0581 16.0486 14.7053 16.0486C19.9821 16.0486 23.0862 12.4914 23.0862 8.56198C23.0862 5.21162 20.7193 2.52305 17.1885 2.52305ZM4.15169 7.56928V2.31624H5.35449C6.7513 2.31624 7.3333 3.18485 7.3333 4.59118C7.3333 6.28704 6.4021 7.61064 4.88889 7.61064C4.65609 7.56928 4.22929 7.56928 4.15169 7.56928ZM76.5139 2.85395C76.2811 3.39166 76.1647 3.97074 76.1647 5.29434V12.4914C76.2035 13.2359 76.2423 13.7323 76.5139 14.3114V14.3527H76.1647H75.4663H73.9919C73.4487 14.1046 72.8667 13.4014 72.0907 12.5328C71.4699 11.8296 68.5599 8.23108 68.5599 8.23108H68.5211C68.5211 8.23108 68.5211 11.6228 68.5211 11.6642C67.6675 11.7469 66.6587 11.9951 65.8827 12.2019V11.4574V5.25298C65.8827 3.88801 65.7663 3.3503 65.5335 2.81259V2.77123H67.7063H68.5987L73.5263 9.14106V5.3357C73.5263 3.97074 73.4099 3.43303 73.1771 2.89531V2.85395H75.4663H76.5139ZM71.4311 14.3941C67.1243 14.4355 66.1155 16.9172 60.6447 16.9172C58.0063 16.9172 55.6783 16.1727 55.6783 16.1727V16.1313C55.9887 15.3868 56.0275 14.8077 56.0275 13.6909V3.06076C56.0275 1.6958 55.9111 0.703099 55.6783 0.165386V0.124023H64.4859L64.7575 2.72986C64.0979 2.44033 63.2831 2.3576 62.1191 2.3576H59.7911V6.86612H60.9163C62.6623 6.86612 63.6711 6.74203 63.9427 6.6593H64.0203V9.38923H63.9815C63.6323 9.26514 62.4295 9.14106 60.9939 9.14106H59.8299V13.6496C59.8299 13.6496 61.1879 13.9805 62.4295 13.9805C65.6887 13.9805 67.0855 12.7396 70.3059 12.7396C70.4223 12.7396 70.4999 12.7396 70.5775 12.7396C71.1983 13.5255 71.7415 14.1459 71.9743 14.3941C71.7415 14.3941 71.7415 14.3941 71.4311 14.3941ZM90.1716 5.3357V11.9123C90.1716 13.0291 90.2104 13.6496 90.5208 14.3941V14.4355H86.3304V14.3941C86.6408 13.6496 86.6796 13.0291 86.6796 11.9123V5.3357C86.6796 3.97074 86.5632 3.43303 86.3304 2.89531V2.85395H90.5208V2.89531C90.288 3.43303 90.1716 3.97074 90.1716 5.3357ZM81.752 7.85882H82.0624C83.6144 7.85882 84.1188 7.73473 84.3516 7.69337H84.4292V10.0924H84.3516C84.0412 9.96831 83.3816 9.84422 82.1012 9.84422H81.752V11.2505V11.8296C81.752 12.9878 81.7908 13.7737 82.14 14.3527V14.3941H77.9107V14.3527C78.2211 13.6082 78.2599 12.9878 78.2599 11.871V5.3357C78.2599 3.97074 78.1435 3.43303 77.9107 2.89531V2.85395H85.1276L85.3992 5.21162H85.3604C84.856 4.96344 84.1964 4.83935 83.1488 4.83935H81.752V6.74203V7.85882V7.85882ZM99.6776 11.9951L99.406 14.3941H94.4008H91.9564V14.3527C92.2668 13.6082 92.3056 12.9878 92.3056 11.871V5.3357C92.3056 3.97074 92.1892 3.43303 91.9564 2.89531V2.85395H99.1732L99.4448 5.21162H99.406C98.9016 4.96344 98.242 4.83935 97.1944 4.83935H95.7976V7.48656H96.0692C97.6212 7.48656 98.1256 7.36247 98.3584 7.32111H98.436V9.72013H98.3584C98.048 9.59604 97.3884 9.47196 96.108 9.47196H95.7588V12.2019C96.2632 12.2846 96.6124 12.326 97.1944 12.326C98.5136 12.326 98.9792 12.2432 99.5224 11.9951H99.6776ZM118.884 8.97561C118.884 12.9464 116.168 16.0486 111.589 16.0486C108.058 16.0486 106.933 14.3941 102.549 14.3941H100.725V14.3527C101.036 13.6082 101.074 12.9878 101.074 11.871V5.29434C101.074 3.92938 100.958 3.39166 100.725 2.85395V2.81259H104.916V2.85395C104.683 3.39166 104.566 4.26028 104.566 5.3357V12.3673C107.166 12.3673 108.33 13.1946 110.619 13.1946C113.801 13.1946 115.353 11.3333 115.353 8.68607C115.353 6.41113 114.266 4.71526 112.365 4.71526C112.016 4.71526 111.512 4.71526 111.124 4.71526V11.871C109.96 11.9123 108.602 11.7469 107.632 11.3746V5.29434C107.632 3.92938 107.515 3.39166 107.282 2.85395V2.81259H112.21C116.284 2.81259 118.884 5.50115 118.884 8.97561Z" fill="#DA291C"/>
</svg>
